# xmcd
#
# Track frame offsets: 
#        150
#        20702
#        41374
#        63396
#        88100
#        106741
#        128772
#        148571
#        175494
#
# Disc length: 2762 seconds
#
# Revision: 0
# Processed by: cddbd v1.5.2PL0 Copyright (c) Steve Scherf et al.
# Submitted via: ExactAudioCopyFreeDBPlugin 1.0
#
DISCID=760ac809
DTITLE=Stephanie Cooke - Everything -R&B Mixes-
DYEAR=2004
DGENRE=Soul
TTITLE0=Here With My Best Friend
TTITLE1=Should a Been Loving You
TTITLE2=Just For Tonight
TTITLE3=I Never Told You,You Could Stay
TTITLE4=If I Have To Change
TTITLE5=It's Like Nothing
TTITLE6=Everything
TTITLE7=I Thank You (S.Cooke Original Mix)
TTITLE8=Rain [Let It All Come Down] (Soul Dhama Remix)
EXTD=
EXTT0=
EXTT1=
EXTT2=
EXTT3=
EXTT4=
EXTT5=
EXTT6=
EXTT7=
EXTT8=
PLAYORDER=
